<svg width="106" height="57" viewBox="0 0 106 57" fill="none" xmlns="http://www.w3.org/2000/svg">
<path d="M17.5469 19.4062V9.5625H15.0313V6.92188H20.5156V8.82812C22.3073 7.40104 24.0625 6.6875 25.7813 6.6875C27.5104 6.6875 28.7031 7.47396 29.3594 9.04688C31.3281 7.47396 33.1615 6.6875 34.8594 6.6875C35.8385 6.6875 36.6406 6.90625 37.2656 7.34375C37.901 7.77083 38.3281 8.31771 38.5469 8.98438C38.7656 9.64062 38.875 10.6146 38.875 11.9062V19.4062H41.5156V22.0469H35.9063V12.4375C35.9063 11.5625 35.8646 10.9479 35.7813 10.5938C35.7083 10.2292 35.5104 9.93229 35.1875 9.70312C34.875 9.46354 34.4948 9.34375 34.0469 9.34375C32.776 9.34375 31.3333 9.99479 29.7188 11.2969V19.4062H32.3125V22.0469H26.75V12.1562C26.75 11.1667 26.6042 10.4531 26.3125 10.0156C26.0313 9.56771 25.5469 9.34375 24.8594 9.34375C23.7344 9.34375 22.2865 9.99479 20.5156 11.2969V19.4062H23.1719V22.0469H14.8438V19.4062H17.5469Z" fill="#E0084F"/>
<path d="M44.6563 1.78125C44.6563 1.30208 44.8229 0.885417 45.1563 0.53125C45.5 0.177083 45.9323 0 46.4531 0C46.9427 0 47.3646 0.171875 47.7188 0.515625C48.0729 0.859375 48.25 1.28125 48.25 1.78125C48.25 2.28125 48.0729 2.70833 47.7188 3.0625C47.3646 3.40625 46.9427 3.57812 46.4531 3.57812C45.9531 3.57812 45.526 3.40104 45.1719 3.04688C44.8281 2.69271 44.6563 2.27083 44.6563 1.78125ZM45.0781 19.4062V9.5625H42.7188V6.92188H48.0469V19.4062H50.375V22.0469H42.7188V19.4062H45.0781Z" fill="#E0084F"/>
<path d="M57.5156 6.92188V8.75C59.4219 7.375 61.1615 6.6875 62.7344 6.6875C63.7135 6.6875 64.5208 6.92188 65.1562 7.39062C65.8021 7.84896 66.224 8.41667 66.4219 9.09375C66.6198 9.76042 66.7188 10.7396 66.7188 12.0312V19.4062H69.2656V22.0469H63.75V12.1562C63.75 11.0104 63.5781 10.2656 63.2344 9.92188C62.8906 9.56771 62.4688 9.39062 61.9688 9.39062C60.6563 9.39062 59.1719 10.0312 57.5156 11.3125V19.4062H60.125V22.0469H51.8906V19.4062H54.5469V9.5625H51.8906V6.92188H57.5156Z" fill="#E0084F"/>
<path d="M85.9531 19.4062V22.0469H80.7656V20.2031C79.3281 21.599 77.724 22.2969 75.9531 22.2969C74.5781 22.2969 73.3802 21.849 72.3594 20.9531C71.349 20.0573 70.8438 18.9115 70.8438 17.5156C70.8438 16.1094 71.3802 14.9427 72.4531 14.0156C73.5365 13.0885 74.8385 12.625 76.3594 12.625C77.776 12.625 79.1458 13.0521 80.4688 13.9062V12.4062C80.4688 11.6354 80.3958 11.0417 80.25 10.625C80.1042 10.2083 79.7604 9.83333 79.2188 9.5C78.6875 9.16667 77.9896 9 77.125 9C75.6354 9 74.5573 9.59375 73.8906 10.7812L71.0469 10.0312C72.3073 7.67708 74.4844 6.5 77.5781 6.5C78.7135 6.5 79.6927 6.65625 80.5156 6.96875C81.349 7.27083 81.9688 7.66667 82.375 8.15625C82.7812 8.63542 83.0521 9.15625 83.1875 9.71875C83.3333 10.2812 83.4062 11.1771 83.4062 12.4062V19.4062H85.9531ZM80.4688 16.4219C79.1875 15.4219 77.8906 14.9219 76.5781 14.9219C75.7552 14.9219 75.0677 15.1615 74.5156 15.6406C73.9635 16.1198 73.6875 16.7396 73.6875 17.5C73.6875 18.2083 73.9271 18.8021 74.4062 19.2812C74.8958 19.7604 75.5573 20 76.3906 20C77.8281 20 79.1875 19.3958 80.4688 18.1875V16.4219Z" fill="#E0084F"/>
<path d="M87.6875 22.0469V16.8594H90.3438V17.3594C90.4375 18.0677 90.8177 18.651 91.4844 19.1094C92.1615 19.5677 92.9583 19.7969 93.875 19.7969C94.8333 19.7969 95.599 19.6302 96.1719 19.2969C96.7448 18.9635 97.0312 18.5 97.0312 17.9062C97.0312 17.3333 96.7917 16.9115 96.3125 16.6406C95.8438 16.3698 94.9062 16.1198 93.5 15.8906C91.4167 15.5365 89.9271 14.9688 89.0312 14.1875C88.1458 13.3958 87.7031 12.375 87.7031 11.125C87.7031 9.86458 88.1875 8.8125 89.1562 7.96875C90.125 7.11458 91.401 6.6875 92.9844 6.6875C94.4115 6.6875 95.6406 6.97917 96.6719 7.5625V6.92188H99.3125V11.9375H96.6719V11.0156C95.8698 9.77604 94.7031 9.15625 93.1719 9.15625C92.3906 9.15625 91.7448 9.32812 91.2344 9.67188C90.7344 10.0052 90.4844 10.4531 90.4844 11.0156C90.4844 11.5885 90.7135 11.9844 91.1719 12.2031C91.6406 12.4115 92.6406 12.6354 94.1719 12.875C95.6406 13.1042 96.75 13.375 97.5 13.6875C98.25 13.9896 98.8698 14.5 99.3594 15.2188C99.8594 15.9271 100.109 16.7552 100.109 17.7031C100.109 19.1094 99.5677 20.2292 98.4844 21.0625C97.4115 21.8854 96.0156 22.2969 94.2969 22.2969C92.6823 22.2969 91.3646 21.9323 90.3438 21.2031V22.0469H87.6875Z" fill="#E0084F"/>
<path d="M37.9688 37.5625V34.9219H39.9375V32.5938L42.9063 29.875V34.9219H45.7031V37.5625H42.9063V44.9062C42.9063 46.0833 42.9688 46.8125 43.0938 47.0938C43.2292 47.3646 43.5573 47.5 44.0781 47.5C44.6302 47.5 45.1719 47.3958 45.7031 47.1875V49.8906C44.9427 50.1615 44.1823 50.2969 43.4219 50.2969C42.5156 50.2969 41.7813 50.099 41.2188 49.7031C40.6563 49.2969 40.3021 48.7917 40.1563 48.1875C40.0104 47.5833 39.9375 46.5417 39.9375 45.0625V37.5625H37.9688Z" fill="#E0084F"/>
<path d="M63.2344 47.4062V50.0469H58.0469V48.2031C56.6094 49.599 55.0052 50.2969 53.2344 50.2969C51.8594 50.2969 50.6615 49.849 49.6406 48.9531C48.6302 48.0573 48.125 46.9115 48.125 45.5156C48.125 44.1094 48.6615 42.9427 49.7344 42.0156C50.8177 41.0885 52.1198 40.625 53.6406 40.625C55.0573 40.625 56.4271 41.0521 57.75 41.9062V40.4062C57.75 39.6354 57.6771 39.0417 57.5313 38.625C57.3854 38.2083 57.0417 37.8333 56.5 37.5C55.9688 37.1667 55.2708 37 54.4063 37C52.9167 37 51.8385 37.5938 51.1719 38.7812L48.3281 38.0312C49.5885 35.6771 51.7656 34.5 54.8594 34.5C55.9948 34.5 56.974 34.6562 57.7969 34.9688C58.6302 35.2708 59.25 35.6667 59.6563 36.1562C60.0625 36.6354 60.3333 37.1562 60.4688 37.7188C60.6146 38.2812 60.6875 39.1771 60.6875 40.4062V47.4062H63.2344ZM57.75 44.4219C56.4688 43.4219 55.1719 42.9219 53.8594 42.9219C53.0365 42.9219 52.349 43.1615 51.7969 43.6406C51.2448 44.1198 50.9688 44.7396 50.9688 45.5C50.9688 46.2083 51.2083 46.8021 51.6875 47.2812C52.1771 47.7604 52.8385 48 53.6719 48C55.1094 48 56.4688 47.3958 57.75 46.1875V44.4219Z" fill="#E0084F"/>
<path d="M66.9844 47.4062V30.9531H64.2969V28.3125H69.9531V47.4062H72.2656V50.0469H64.2969V47.4062H66.9844Z" fill="#E0084F"/>
<path d="M76.5 47.4062V30.9531H73.7812V28.3125H79.4688V41.8906L85.125 37.375H82.6094V34.9219H90.9688V37.375H88.6562L82.9844 42.0938L88.3125 47.4062H90.9688V50.0469H87.0781L79.4688 42.4375V47.4062H82.0781V50.0469H73.7812V47.4062H76.5Z" fill="#E0084F"/>
<path d="M92.6562 50.0469V44.8594H95.3125V45.3594C95.4062 46.0677 95.7865 46.651 96.4531 47.1094C97.1302 47.5677 97.9271 47.7969 98.8438 47.7969C99.8021 47.7969 100.568 47.6302 101.141 47.2969C101.714 46.9635 102 46.5 102 45.9062C102 45.3333 101.76 44.9115 101.281 44.6406C100.812 44.3698 99.875 44.1198 98.4688 43.8906C96.3854 43.5365 94.8958 42.9688 94 42.1875C93.1146 41.3958 92.6719 40.375 92.6719 39.125C92.6719 37.8646 93.1562 36.8125 94.125 35.9688C95.0938 35.1146 96.3698 34.6875 97.9531 34.6875C99.3802 34.6875 100.609 34.9792 101.641 35.5625V34.9219H104.281V39.9375H101.641V39.0156C100.839 37.776 99.6719 37.1562 98.1406 37.1562C97.3594 37.1562 96.7135 37.3281 96.2031 37.6719C95.7031 38.0052 95.4531 38.4531 95.4531 39.0156C95.4531 39.5885 95.6823 39.9844 96.1406 40.2031C96.6094 40.4115 97.6094 40.6354 99.1406 40.875C100.609 41.1042 101.719 41.375 102.469 41.6875C103.219 41.9896 103.839 42.5 104.328 43.2188C104.828 43.9271 105.078 44.7552 105.078 45.7031C105.078 47.1094 104.536 48.2292 103.453 49.0625C102.38 49.8854 100.984 50.2969 99.2656 50.2969C97.651 50.2969 96.3333 49.9323 95.3125 49.2031V50.0469H92.6562Z" fill="#E0084F"/>
<path d="M22.0169 27.0469H2.14845C0.969104 27.0469 0 28.016 0 29.195V43.9396C0 45.1186 0.969104 46.0877 2.14845 46.0877H6.74989V51.4415C6.74989 52.0769 7.51848 52.3825 7.95947 51.9426L13.8144 46.0877H14.7929V50.8753C14.7929 51.7378 15.496 52.4401 16.3581 52.4401H21.1201L24.5192 55.8399C24.9602 56.2798 25.7291 55.9742 25.7291 55.3388V52.4401H28.18C29.0422 52.4401 29.7452 51.7378 29.7452 50.8753V42.1026C29.7452 41.2414 29.0411 40.5373 28.18 40.5373H24.1657V29.195C24.1657 28.016 23.1966 27.0469 22.0169 27.0469ZM6.08318 34.3476C4.90924 34.3476 3.95814 35.2987 3.95814 36.4726C3.95814 37.6462 4.90924 38.5973 6.08318 38.5973C7.25676 38.5973 8.20823 37.6462 8.20823 36.4726C8.20823 35.2987 7.25676 34.3476 6.08318 34.3476ZM12.0828 34.3476C10.9089 34.3476 9.9578 35.2987 9.9578 36.4726C9.9578 37.6462 10.9089 38.5973 12.0828 38.5973C13.2564 38.5973 14.2075 37.6462 14.2075 36.4726C14.2075 35.2987 13.2564 34.3476 12.0828 34.3476ZM18.0825 34.3476C16.9086 34.3476 15.9575 35.2987 15.9575 36.4726C15.9575 37.6462 16.9086 38.5973 18.0825 38.5973C19.2561 38.5973 20.2072 37.6462 20.2072 36.4726C20.2072 35.2987 19.2561 34.3476 18.0825 34.3476ZM2.14881 28.4642H22.0172C22.4215 28.4642 22.7484 28.791 22.7484 29.195V43.9396C22.7484 44.3435 22.4215 44.6704 22.0172 44.6704H13.5207C13.3392 44.6704 13.1578 44.7395 13.0196 44.8781L8.16683 49.7305V45.3792C8.16683 44.9879 7.84967 44.6704 7.45836 44.6704H2.14845C1.74417 44.6704 1.4173 44.3435 1.4173 43.9396V29.195C1.4173 28.791 1.74453 28.4642 2.14881 28.4642Z" fill="#E0084F"/>
</svg>
